<?xml version="1.0" encoding="UTF-8"?><svg id="_レイヤー_2" xmlns="http://www.w3.org/2000/svg" viewBox="0 0 152.34 63.28"><defs><style>.cls-1{fill:#fff;}</style></defs><g id="_レイヤー_2-2"><g><g><path class="cls-1" d="M65.32,31.43c0-2.83,.71-4.25,2.14-4.25h9.95c1.79,0,3.28,.45,4.47,1.35,1.19,.9,2.05,2.77,2.6,5.6,.54,2.83,.54,5.59,0,8.27-.54,2.69-1.41,4.38-2.6,5.09-1.19,.71-2.68,1.06-4.47,1.06h-6.65v13.77h-5.45V31.43Zm11.66,11.72c.94,.05,1.69-.54,2.25-1.76,.63-2.1,.63-4.42,0-6.96-.56-1.12-1.31-1.68-2.25-1.68h-6.21v10.4h6.21Z"/><path class="cls-1" d="M100.63,36.92c2.42,2.1,3.64,5.3,3.67,9.59,.05,2.93-.79,4.39-2.51,4.39h-9.63c0,4.88,1.19,7.32,3.56,7.32,2.13,0,3.2-1.76,3.2-5.27h5.45c0,2.59-.7,4.95-2.09,7.1-1.39,2.15-3.63,3.22-6.72,3.22s-5.15-.83-6.19-2.49c-1.72-2.64-2.58-6.17-2.58-10.62,0-6.1,1.22-10.32,3.67-12.67,1.65-1.37,3.34-2.05,5.09-2.05s3.44,.49,5.09,1.46Zm-4.9,4.32c-1.65,0-2.72,1.49-3.23,4.47h6.1c-.48-2.98-1.44-4.47-2.87-4.47Z"/><path class="cls-1" d="M120.71,62.33h-4.4c-1.94,0-3.49-.71-4.65-2.12-1.57-1.95-2.36-5.3-2.36-10.03v-8.42h-3.16v-5.13h3.16v-7.1h5.38v7.1h7.23c0,3.42-.7,5.13-2.11,5.13h-5.12v8.35c-.1,4.83,1.39,7.18,4.47,7.03h3.56c.15,3.42-.52,5.15-2,5.2Z"/><path class="cls-1" d="M135.39,62.33c-1.48,0-2.22-1.46-2.22-4.39V31.43c0-2.83,.71-4.25,2.14-4.25h9.12c2.64,0,4.38,.76,5.23,2.27,1.43,1.86,2.2,4.17,2.31,6.96,.11,2.78-.55,5.25-1.98,7.4-.1,.15-.21,.29-.33,.44,.1,.1,.18,.17,.25,.22,1.67,2,2.48,4.64,2.42,7.91-.06,3.27-.85,5.83-2.38,7.69-1.72,1.71-3.71,2.47-5.96,2.27h-8.61Zm8.32-20.5c2.01-.24,2.94-1.73,2.8-4.47-.17-3.08-1.14-4.61-2.91-4.61h-4.98v9.08h5.09Zm-.11,15.08c2.06-.54,3.17-2.2,3.34-4.98,.15-3.17-.93-4.81-3.23-4.91h-5.09v9.89h4.98Z"/></g><path class="cls-1" d="M50.07,30.64c-.12-.09-.26-.21-.41-.39,.2-.26,.37-.52,.53-.78,2.32-3.81,3.39-8.18,3.21-13.11-.18-4.93-1.42-9.04-3.74-12.33-1.38-2.68-4.2-4.02-8.48-4.02H12.12c-2.91,0-5.32,.8-7.25,2.4C2.95,4,1.55,7.32,.66,12.33-.22,17.35-.22,22.25,.66,27c.88,4.76,2.29,7.77,4.21,9.02,1.93,1.26,4.34,1.88,7.25,1.88h10.78v24.41h17.56c3.65,.35,6.87-.99,9.66-4.02,2.47-3.29,3.76-7.83,3.86-13.63,.1-5.8-1.21-10.47-3.92-14.02Zm-27.16-2.34H12.83c-1.53,.09-2.75-.95-3.65-3.12-1.02-3.72-1.02-7.83,0-12.33,.9-1.99,2.12-2.99,3.65-2.99h10.08V28.3Zm21.62-10.26c.24,4.85-1.28,7.49-4.54,7.92h-8.25V9.87h8.07c2.87,0,4.44,2.73,4.71,8.18Zm.71,25.84c-.28,4.93-2.08,7.88-5.42,8.83h-8.07v-17.53h8.25c3.73,.17,5.48,3.07,5.24,8.7Z"/></g></g></svg>